<svg xmlns="http://www.w3.org/2000/svg" width="22" fill="#ff441f" viewBox="0 0 56 18" class="sc-hiMGwR fWXsGK"><path fill="#ff441f" fill-rule="evenodd" d="M46.572 5.84c3.14 2.244 5.752 2.084 8.7-.42.244-.204.484-.413.728-.618-.438 2.36-1.385 4.469-2.78 6.389-1.781 2.443-4.118 4.204-7.05 5.161-6.858 2.254-15.518-.883-18.17-6.802-2.652 5.92-11.312 9.056-18.17 6.802-2.932-.957-5.269-2.718-7.05-5.161C1.385 9.27.433 7.16 0 4.802c.24.205.484.414.728.619 2.943 2.503 5.56 2.663 8.695.419 1.441-1.033 2.734-2.26 4.18-3.282 1.12-.793 2.311-1.58 3.584-2.07 2.21-.847 4.46-.563 6.47.629 1.375.813 2.622 1.82 3.895 2.778.178.134.31.204.448.2.132.004.265-.066.443-.2 1.273-.958 2.525-1.965 3.894-2.778 2.021-1.192 4.261-1.476 6.476-.628 1.278.488 2.459 1.276 3.579 2.07 1.446 1.022 2.739 2.248 4.18 3.28z" clip-rule="evenodd"/></svg>