<svg fill="none" xmlns="http://www.w3.org/2000/svg" role="img" class="navigation-bar__hamburger-menu-icon"><path d="M18.333 9.666H3.667c-.4 0-.667.267-.667.667v1.333c0 .4.267.667.667.667h14.666c.4 0 .667-.267.667-.667v-1.333c0-.4-.267-.667-.667-.667ZM18.333 4.333H3.667C3.267 4.333 3 4.6 3 5v1.333c0 .4.267.667.667.667h14.666c.4 0 .667-.267.667-.667V5c0-.4-.267-.667-.667-.667ZM18.333 15H3.667c-.4 0-.667.267-.667.667V17c0 .4.267.667.667.667h14.666c.4 0 .667-.267.667-.667v-1.333c0-.4-.267-.667-.667-.667Z" fill="currentColor"/></svg>